<?xml version="1.0" encoding="iso-8859-1"?>
<!-- Generator: Adobe Illustrator 19.0.0, SVG Export Plug-In . SVG Version: 6.00 Build 0)  -->
<svg xmlns="http://www.w3.org/2000/svg" xmlns:xlink="http://www.w3.org/1999/xlink" version="1.1" id="Capa_1" x="0px" y="0px" viewBox="0 0 512 512" style="enable-background:new 0 0 512 512;" xml:space="preserve" width="512px" height="512px">
<g>
	<g>
		<path d="M256,235.922c-11.071,0-20.078,9.007-20.078,20.078c0,11.071,9.007,20.078,20.078,20.078    c11.071,0,20.078-9.007,20.078-20.078C276.078,244.929,267.071,235.922,256,235.922z" fill="#2c3e50"/>
	</g>
</g>
<g>
	<g>
		<path d="M160.627,33.675v392.63l190.745,52.021V85.696L160.627,33.675z M326.275,271.059h-22.389    c-6.411,20.344-25.451,35.137-47.885,35.137s-41.474-14.794-47.885-35.137h-22.389v-30.118h22.389    c6.411-20.343,25.451-35.137,47.885-35.137c22.434,0,41.474,14.794,47.885,35.137h22.389V271.059z" fill="#2c3e50"/>
	</g>
</g>
<g>
	<g>
		<polygon points="381.49,86.482 381.49,478.803 512,448.686 512,56.364   " fill="#2c3e50"/>
	</g>
</g>
<g>
	<g>
		<polygon points="0,63.314 0,455.636 130.51,425.518 130.51,33.197   " fill="#2c3e50"/>
	</g>
</g>
<g>
</g>
<g>
</g>
<g>
</g>
<g>
</g>
<g>
</g>
<g>
</g>
<g>
</g>
<g>
</g>
<g>
</g>
<g>
</g>
<g>
</g>
<g>
</g>
<g>
</g>
<g>
</g>
<g>
</g>
</svg>
