<?xml version="1.0" encoding="iso-8859-1"?>
<!-- Generator: Adobe Illustrator 16.0.0, SVG Export Plug-In . SVG Version: 6.00 Build 0)  -->
<!DOCTYPE svg PUBLIC "-//W3C//DTD SVG 1.1//EN" "http://www.w3.org/Graphics/SVG/1.1/DTD/svg11.dtd">
<svg xmlns="http://www.w3.org/2000/svg" xmlns:xlink="http://www.w3.org/1999/xlink" version="1.1" id="Capa_1" x="0px" y="0px" width="512px" height="512px" viewBox="0 0 526.194 526.194" style="enable-background:new 0 0 526.194 526.194;" xml:space="preserve">
<g>
	<g>
		<path d="M265.59,0C117.881,0,70.086,112.03,70.086,166.282v178.216v5.979v84.939h103.862v-84.939h0.059V166.364    c0.012-0.625,4.14-62.443,91.583-62.443c90.539,0,91.578,59.81,91.578,62.362v178.216h-0.07v90.918h103.984v-84.939v-5.979    V166.282C461.094,99.437,409.038,0,265.59,0z M156.013,417.48h-67.99v-55.046h67.99V417.48z M443.158,417.48h-68.124v-55.046    h68.112v55.046H443.158z" fill="#208eb2"/>
		<polygon points="71.091,447.993 65.101,502.839 85.74,491.443 101.486,526.194 119.673,490.345 135.735,524.839 154.436,493.054     175,506.647 173.353,447.993   " fill="#208eb2"/>
		<polygon points="357.18,447.993 351.189,502.839 371.812,491.443 387.575,526.194 405.768,490.345 421.824,524.839     440.52,493.054 461.094,506.647 459.436,447.993   " fill="#208eb2"/>
	</g>
</g>
<g>
</g>
<g>
</g>
<g>
</g>
<g>
</g>
<g>
</g>
<g>
</g>
<g>
</g>
<g>
</g>
<g>
</g>
<g>
</g>
<g>
</g>
<g>
</g>
<g>
</g>
<g>
</g>
<g>
</g>
</svg>
