<?xml version="1.0" encoding="iso-8859-1"?>
<!-- Generator: Adobe Illustrator 19.0.0, SVG Export Plug-In . SVG Version: 6.00 Build 0)  -->
<svg version="1.1" id="Capa_1" xmlns="http://www.w3.org/2000/svg" xmlns:xlink="http://www.w3.org/1999/xlink" x="0px" y="0px"
	 viewBox="0 0 512 512" style="enable-background:new 0 0 512 512;" xml:space="preserve">
<g transform="matrix(1.25 0 0 -1.25 0 45)">
	<g>
		<g>
			<path style="fill:#E30917;" d="M409.6-271.2c0-25.134-20.378-45.511-45.511-45.511H45.511C20.378-316.711,0-296.334,0-271.2
				v204.8c0,25.134,20.378,45.511,45.511,45.511h318.578c25.134,0,45.511-20.378,45.511-45.511V-271.2z"/>
			<g>
				<path style="fill:#EEEEEE;" d="M182.044-237.067c-37.706,0-68.267,30.561-68.267,68.267s30.561,68.267,68.267,68.267
					c14.916,0,28.672-4.836,39.902-12.948c-15.337,17.34-37.683,28.342-62.657,28.342c-46.205,0-83.661-37.456-83.661-83.661
					s37.456-83.672,83.661-83.672c24.974,0,47.332,11.002,62.657,28.365C210.728-232.231,196.972-237.067,182.044-237.067"/>
				<path style="fill:#EEEEEE;" d="M226.566-171.417l27.75-6.394l2.514-28.365l14.655,24.417l27.762-6.383l-18.705,21.493
					l14.643,24.417l-26.214-11.15l-18.694,21.493l2.503-28.376L226.566-171.417z"/>
			</g>
		</g>
	</g>
</g>
<g>
</g>
<g>
</g>
<g>
</g>
<g>
</g>
<g>
</g>
<g>
</g>
<g>
</g>
<g>
</g>
<g>
</g>
<g>
</g>
<g>
</g>
<g>
</g>
<g>
</g>
<g>
</g>
<g>
</g>
</svg>
