<?xml version="1.0" standalone="no"?>
<!-- Generator: Adobe Fireworks 10, Export SVG Extension by Aaron Beall (http://fireworks.abeall.com) . Version: 0.6.1  -->
<!DOCTYPE svg PUBLIC "-//W3C//DTD SVG 1.1//EN" "http://www.w3.org/Graphics/SVG/1.1/DTD/svg11.dtd">
<svg id="giyim.fw-Page%201" viewBox="0 0 512 512" style="background-color:#ffffff00" version="1.1"
	xmlns="http://www.w3.org/2000/svg" xmlns:xlink="http://www.w3.org/1999/xlink" xml:space="preserve"
	x="0px" y="0px" width="512px" height="512px"
>
	<path d="M 402 168 L 402 172 L 399 190 L 395 205 L 388 224 L 267 480 L 189 314 C 189 314 147 225 141 211 C 135 197 132 168 132 168 C 132 93.4406 192.4406 33 267 33 C 341.5594 33 402 93.4406 402 168 Z" stroke="#6300c6" stroke-width="7" fill="#9326ff"/>
	<path d="M 217.2093 99.7227 C 219.5562 99.3866 181 133.3361 181 133.3361 L 199.7752 160.2269 L 218.5504 153.5042 L 218.5504 253 L 316.4496 253 L 316.4496 152.1597 L 335.2248 161.5714 L 354 131.9916 L 316.4496 98.3782 L 290.969 93 L 286.9457 98.3782 L 281.5814 102.4118 L 276.217 105.1008 L 269.5116 105.1008 L 261.4651 105.1008 L 256.1008 103.7563 L 250.7364 101.0672 L 246.7132 98.3782 L 242.6899 93 C 242.6899 93 214.8624 100.0588 217.2093 99.7227 Z" stroke="#ffffff00" stroke-width="1" fill="#ffffff"/>
</svg>