<?xml version="1.0" standalone="no"?>
<!-- Generator: Adobe Fireworks 10, Export SVG Extension by Aaron Beall (http://fireworks.abeall.com) . Version: 0.6.1  -->
<!DOCTYPE svg PUBLIC "-//W3C//DTD SVG 1.1//EN" "http://www.w3.org/Graphics/SVG/1.1/DTD/svg11.dtd">
<svg id="eczane4.fw-Page%201" viewBox="0 0 512 512" style="background-color:#ffffff00" version="1.1"
	xmlns="http://www.w3.org/2000/svg" xmlns:xlink="http://www.w3.org/1999/xlink" xml:space="preserve"
	x="0px" y="0px" width="512px" height="512px"
>
	<path d="M 402 168 L 402 172 L 399 190 L 395 205 L 388 224 L 267 480 L 189 314 C 189 314 147 225 141 211 C 135 197 132 168 132 168 C 132 93.4406 192.4406 33 267 33 C 341.5594 33 402 93.4406 402 168 Z" stroke="#98030b" stroke-width="7" fill="#d0040d"/>
	<path d="M 207 93 L 326.8058 93 L 326.8058 124.197 L 251.7626 124.197 L 251.7626 147.0454 L 321.5396 147.0454 L 321.5396 176.9242 L 251.7626 176.9242 L 251.7626 205.0454 L 329 205.0454 L 329 238 L 207 238 C 207 238 207 93.4394 207 93 Z" fill="#ffffff"/>
</svg>