<?xml version="1.0" standalone="no"?>
<!-- Generator: Adobe Fireworks 10, Export SVG Extension by Aaron Beall (http://fireworks.abeall.com) . Version: 0.6.1  -->
<!DOCTYPE svg PUBLIC "-//W3C//DTD SVG 1.1//EN" "http://www.w3.org/Graphics/SVG/1.1/DTD/svg11.dtd">
<svg id="eczane4.fw-Page%201" viewBox="0 0 512 512" style="background-color:#ffffff00" version="1.1"
	xmlns="http://www.w3.org/2000/svg" xmlns:xlink="http://www.w3.org/1999/xlink" xml:space="preserve"
	x="0px" y="0px" width="512px" height="512px"
>
	<path d="M 402 168 L 402 172 L 399 190 L 395 205 L 388 224 L 267 480 L 189 314 C 189 314 147 225 141 211 C 135 197 132 168 132 168 C 132 93.4406 192.4406 33 267 33 C 341.5594 33 402 93.4406 402 168 Z" stroke="#b22d00" stroke-width="7" fill="#ffffff"/>
	<path d="M 203 90 L 335.572 90 L 335.572 124.4242 L 252.5324 124.4242 L 252.5324 149.6364 L 329.7446 149.6364 L 329.7446 182.606 L 252.5324 182.606 L 252.5324 213.6364 L 338 213.6364 L 338 250 L 203 250 C 203 250 203 90.4849 203 90 Z" fill="#d0040d"/>
</svg>