<?xml version="1.0" standalone="no"?>
<!-- Generator: Adobe Fireworks 10, Export SVG Extension by Aaron Beall (http://fireworks.abeall.com) . Version: 0.6.1  -->
<!DOCTYPE svg PUBLIC "-//W3C//DTD SVG 1.1//EN" "http://www.w3.org/Graphics/SVG/1.1/DTD/svg11.dtd">
<svg id="egitimtesisi.fw-Page%201" viewBox="0 0 512 512" style="background-color:#ffffff00" version="1.1"
	xmlns="http://www.w3.org/2000/svg" xmlns:xlink="http://www.w3.org/1999/xlink" xml:space="preserve"
	x="0px" y="0px" width="512px" height="512px"
>
	<path d="M 402 168 L 402 172 L 399 190 L 395 205 L 388 224 L 267 480 L 189 314 C 189 314 147 225 141 211 C 135 197 132 168 132 168 C 132 93.4406 192.4406 33 267 33 C 341.5594 33 402 93.4406 402 168 Z" stroke="#922c16" stroke-width="7" fill="#d24020"/>
	<path d="M 162 140.5422 L 162 135.8193 L 262.5 88 L 363 135.8193 L 363 140.5422 L 262.5 188.9518 L 162 140.5422 Z" stroke="#ffffff00" stroke-width="1" fill="#ffffff"/>
	<path d="M 197.0858 165.3374 L 263.0947 197.2169 L 328.5089 165.9277 L 328.5089 193.6747 L 267.8521 223.1928 L 257.7426 223.1928 L 197.0858 193.6747 L 197.0858 165.3374 Z" stroke="#ffffff00" stroke-width="1" fill="#ffffff"/>
	<path d="M 344.5651 158.253 L 351.7012 154.7108 L 352.2959 209.0241 L 357.6479 225.5542 L 350.5118 235 L 346.3491 235 L 338.6183 224.9639 L 344.5651 210.2048 L 344.5651 158.253 Z" stroke="#ffffff00" stroke-width="1" fill="#ffffff"/>
</svg>