<?xml version="1.0" standalone="no"?>
<!-- Generator: Adobe Fireworks 10, Export SVG Extension by Aaron Beall (http://fireworks.abeall.com) . Version: 0.6.1  -->
<!DOCTYPE svg PUBLIC "-//W3C//DTD SVG 1.1//EN" "http://www.w3.org/Graphics/SVG/1.1/DTD/svg11.dtd">
<svg id="resmikurum2.fw-Page%201" viewBox="0 0 512 512" style="background-color:#ffffff00" version="1.1"
	xmlns="http://www.w3.org/2000/svg" xmlns:xlink="http://www.w3.org/1999/xlink" xml:space="preserve"
	x="0px" y="0px" width="512px" height="512px"
>
	<path d="M 402 168 L 402 172 L 399 190 L 395 205 L 388 224 L 267 480 L 189 314 C 189 314 147 225 141 211 C 135 197 132 168 132 168 C 132 93.4406 192.4406 33 267 33 C 341.5594 33 402 93.4406 402 168 Z" stroke="#6f0000" stroke-width="7" fill="#b20000"/>
	<path d="M 201 220.8912 L 260.7152 174.4966 L 328 220.8912 L 328 209.9252 L 261.5563 161 L 201 209.9252 L 201 220.8912 Z" fill="#ffffff"/>
	<path d="M 229.596 229.3265 L 258.192 229.3265 L 258.192 285 L 228.755 285 L 229.596 229.3265 Z" fill="#ffffff"/>
	<path d="M 262.3973 229.3265 L 262.3973 285 L 293.5166 285 L 293.5166 229.3265 L 262.3973 229.3265 Z" fill="#ffffff"/>
	<path d="M 255.2484 205.2857 C 255.2484 201.3257 258.449 198.1156 262.3973 198.1156 C 266.3457 198.1156 269.5464 201.3257 269.5464 205.2857 C 269.5464 209.2457 266.3457 212.4558 262.3973 212.4558 C 258.449 212.4558 255.2484 209.2457 255.2484 205.2857 ZM 214.457 285 L 225.3907 285 L 225.3907 224.2653 L 229.596 224.2653 L 229.596 221.7347 L 295.1987 221.7347 L 295.1987 224.2653 L 298.5629 224.2653 C 298.5629 224.2653 298.1424 285 298.5629 285 C 298.9834 285 311.1788 285 311.1788 285 L 311.1788 223.4218 L 314.5431 223.4218 L 314.5431 215.8299 L 308.6556 215.8299 L 261.5563 181.2449 L 216.1391 216.6735 L 210.2517 216.6735 L 210.2517 224.2653 L 214.457 224.2653 L 214.457 285 Z" fill="#ffffff"/>
	<path d="M 219 104.5 C 219 126.3155 236.8057 144 258.7708 144 C 270.0392 144 280.2134 139.3435 287.45 131.865 C 282.3621 135.1921 276.2695 137.1304 269.7222 137.1304 C 251.8954 137.1304 237.4445 122.7778 237.4445 105.0725 C 237.4445 87.3671 251.8954 73.0145 269.7222 73.0145 C 277.4949 73.0145 284.6238 75.7447 290.195 80.29 C 282.9189 70.9874 271.5499 65 258.7708 65 C 236.8057 65 219 82.6845 219 104.5 Z" fill="#ffffff"/>
	<g>
		<path d="M 295 86.5 L 302.9159 97.8443 L 316.4377 94.9868 L 308.0679 105.8365 L 315.1246 117.7188 C 315.1246 117.7189 302.0359 113.08 302.0359 113.08 C 302.0359 113.08 292.8754 123.2812 292.8754 123.2812 L 293.1559 109.5645 L 280.4377 103.9868 L 293.6998 100.1484 L 295 86.5 Z" fill="#ffffff"/>
	</g>
</svg>