<?xml version="1.0" standalone="no"?>
<!-- Generator: Adobe Fireworks 10, Export SVG Extension by Aaron Beall (http://fireworks.abeall.com) . Version: 0.6.1  -->
<!DOCTYPE svg PUBLIC "-//W3C//DTD SVG 1.1//EN" "http://www.w3.org/Graphics/SVG/1.1/DTD/svg11.dtd">
<svg id="restaurant.fw-Page%201" viewBox="0 0 512 512" style="background-color:#ffffff00" version="1.1"
	xmlns="http://www.w3.org/2000/svg" xmlns:xlink="http://www.w3.org/1999/xlink" xml:space="preserve"
	x="0px" y="0px" width="512px" height="512px"
>
	<path d="M 402 168 L 402 172 L 399 190 L 395 205 L 388 224 L 267 480 L 189 314 C 189 314 147 225 141 211 C 135 197 132 168 132 168 C 132 93.4406 192.4406 33 267 33 C 341.5594 33 402 93.4406 402 168 Z" stroke="#24936f" stroke-width="7" fill="#2ebe8f"/>
	<path d="M 318 95.25 L 321 96 L 326 100 L 330 105 L 332 110 L 332 115 L 330 119 C 330 119 296.75 178.125 297 178 C 297.25 177.875 292 183 292 183 L 287 185 C 287 185 283.25 185.875 283 186 C 282.75 186.125 279.375 185.125 279 185 C 278.625 184.875 275 184 275 184 L 271 182 L 265 174 L 233 117 L 233 110 C 233 110 233 109.625 235 105 C 237 100.375 241 98 241 98 L 246 95.5 C 247.6153 98.8508 252.031 100 256 100 C 261.5229 100 266 95.5229 266 90 C 266 84.4771 261.5229 80 256 80 C 252.031 80 247.6153 81.8992 246 85.25 L 243 86 C 243 86 234 88.625 229 95 C 224 101.375 223 108 223 108 L 223 117 L 225 123 C 225 123 254 174 260 184 C 266 194 277 195 277 195 L 277 233 C 277 233 275.1667 241.5 269 251 C 261.6038 262.3942 253 266 253 266 C 253 266 241.375 266.625 235 266 C 228.625 265.375 220 254 220 254 C 220 254 219 253.3333 215 245 C 211.3075 237.3073 210 228 210 228 L 210 189.3802 C 220.8828 186.8841 229 177.1401 229 165.5 C 229 151.9688 218.0312 141 204.5 141 C 190.9688 141 180 151.9688 180 165.5 C 180 177.494 188.6182 187.4747 200 189.5876 L 200 228 C 200 228 199.875 235.25 206 251 C 212.125 266.75 224 272 224 272 C 224 272 232.2271 278.1509 244 278 C 257 277.8333 265 271 265 271 C 265 271 276.1214 260.3068 281 252 C 287.1667 241.5 287 233 287 233 L 287 194 C 287 194 289 194.875 292 194 C 294.5314 193.2617 298 190 298 190 L 302 187 L 305 183 L 311 173 C 311 173 326.375 146.875 326 147 C 325.625 147.125 339 125 339 125 C 339 125 342.875 119.75 341 106 C 339.125 92.25 322 86 322 86 L 318 85.2 C 316.3251 81.6257 311.7083 80 307.5 80 C 301.7009 80 297 84.7009 297 90.5 C 297 96.2991 301.7009 101 307.5 101 C 311.7083 101 316.3251 98.8243 318 95.25 Z" fill="#ffffff"/>
</svg>