<?xml version="1.0" standalone="no"?>
<!-- Generator: Adobe Fireworks 10, Export SVG Extension by Aaron Beall (http://fireworks.abeall.com) . Version: 0.6.1  -->
<!DOCTYPE svg PUBLIC "-//W3C//DTD SVG 1.1//EN" "http://www.w3.org/Graphics/SVG/1.1/DTD/svg11.dtd">
<svg id="otel.fw-Page%201" viewBox="0 0 512 512" style="background-color:#ffffff00" version="1.1"
	xmlns="http://www.w3.org/2000/svg" xmlns:xlink="http://www.w3.org/1999/xlink" xml:space="preserve"
	x="0px" y="0px" width="512px" height="512px"
>
	<path d="M 402 168 L 402 172 L 399 190 L 395 205 L 388 224 L 267 480 L 189 314 C 189 314 147 225 141 211 C 135 197 132 168 132 168 C 132 93.4406 192.4406 33 267 33 C 341.5594 33 402 93.4406 402 168 Z" stroke="#a85400" stroke-width="7" fill="#d96d00"/>
	<path d="M 249 118 L 358 128 L 363 131 L 365 135 L 366 138 L 366 156 L 214 156 L 211 154 L 210 149 L 212 146 L 215 145 L 243 145 L 243 121 L 245 118 L 249 118 Z" stroke="#ffffff00" stroke-width="1" fill="#ffffff"/>
	<path d="M 200 166 L 366 166 L 366 210 L 351 210 L 351 181 L 200 181 L 200 210 L 185 210 L 185 105 L 187 102 L 190 100 L 195 100 L 199 103 L 200 106 L 200 166 Z" stroke="#ffffff00" stroke-width="1" fill="#ffffff"/>
	<path id="Ellipse" d="M 208 124 C 208 116.2679 214.2679 110 222 110 C 229.7321 110 236 116.2679 236 124 C 236 131.7321 229.7321 138 222 138 C 214.2679 138 208 131.7321 208 124 Z" stroke="#ffffff00" stroke-width="1" fill="#ffffff"/>
</svg>