<?xml version="1.0" standalone="no"?>
<!-- Generator: Adobe Fireworks 10, Export SVG Extension by Aaron Beall (http://fireworks.abeall.com) . Version: 0.6.1  -->
<!DOCTYPE svg PUBLIC "-//W3C//DTD SVG 1.1//EN" "http://www.w3.org/Graphics/SVG/1.1/DTD/svg11.dtd">
<svg id="alisveris.fw-Page%201" viewBox="0 0 512 512" style="background-color:#ffffff00" version="1.1"
	xmlns="http://www.w3.org/2000/svg" xmlns:xlink="http://www.w3.org/1999/xlink" xml:space="preserve"
	x="0px" y="0px" width="512px" height="512px"
>
	<path d="M 402 168 L 402 172 L 399 190 L 395 205 L 388 224 L 267 480 L 189 314 C 189 314 147 225 141 211 C 135 197 132 168 132 168 C 132 93.4406 192.4406 33 267 33 C 341.5594 33 402 93.4406 402 168 Z" stroke="#0077a4" stroke-width="7" fill="#00a9e6"/>
	<path d="M 187 97 L 208 97 L 212 110 L 336 110 L 331 177 L 236 190 L 229 192 L 222 195 L 217 198 L 212 203 L 209 208 L 207 213 L 207 214 L 336 214 L 336 221 L 200 221 L 200 212 L 202 206 L 206 199 L 210 194 L 216 189 L 222 186 L 225 185 L 203 104 L 187 104 L 187 97 Z" stroke="#ffffff00" stroke-width="1" fill="#ffffff"/>
	<path id="Ellipse" d="M 202 234 C 202 228.4771 206.4771 224 212 224 C 217.5229 224 222 228.4771 222 234 C 222 239.5229 217.5229 244 212 244 C 206.4771 244 202 239.5229 202 234 Z" stroke="#ffffff00" stroke-width="1" fill="#ffffff"/>
	<path id="Ellipse2" d="M 314 234 C 314 228.4771 318.4771 224 324 224 C 329.5229 224 334 228.4771 334 234 C 334 239.5229 329.5229 244 324 244 C 318.4771 244 314 239.5229 314 234 Z" stroke="#ffffff00" stroke-width="1" fill="#ffffff"/>
</svg>