<?xml version="1.0" standalone="no"?>
<!-- Generator: Adobe Fireworks 10, Export SVG Extension by Aaron Beall (http://fireworks.abeall.com) . Version: 0.6.1  -->
<!DOCTYPE svg PUBLIC "-//W3C//DTD SVG 1.1//EN" "http://www.w3.org/Graphics/SVG/1.1/DTD/svg11.dtd">
<svg id="eczane2.fw-Page%201" viewBox="0 0 512 512" style="background-color:#ffffff00" version="1.1"
	xmlns="http://www.w3.org/2000/svg" xmlns:xlink="http://www.w3.org/1999/xlink" xml:space="preserve"
	x="0px" y="0px" width="512px" height="512px"
>
	<path d="M 402 168 L 402 172 L 399 190 L 395 205 L 388 224 L 267 480 L 189 314 C 189 314 147 225 141 211 C 135 197 132 168 132 168 C 132 93.4406 192.4406 33 267 33 C 341.5594 33 402 93.4406 402 168 Z" stroke="#791f00" stroke-width="7" fill="#b22d00"/>
	<path d="M 244.8712 233.1133 C 244.8712 232.8292 262.4829 229.1348 262.4829 229.1348 L 262.4829 289.9492 C 262.4829 289.9492 266.1757 289.665 272.709 291.0859 C 279.2424 292.5068 285.7757 297.9063 285.7757 297.9063 L 287.4801 301.3164 L 288.0482 304.1582 L 285.7757 307 L 222.1465 307 L 219.306 304.1582 L 219.306 301.8848 L 221.5784 297.9063 C 221.5784 297.9063 227.2596 292.9331 233.5089 291.0859 C 239.7582 289.2388 244.8712 289.9492 244.8712 289.9492 C 244.8712 289.9492 244.8712 233.3975 244.8712 233.1133 Z" stroke="#ffffff00" stroke-width="1" fill="#ffffff"/>
	<path d="M 231.2364 109.7795 L 234.077 113.1896 L 238.0538 115.4631 L 229.5321 120.0099 L 222.7147 125.1252 L 214.1929 133.0822 C 214.1929 133.0822 214.903 127.6828 216.4654 125.6935 C 218.0277 123.7043 219.306 121.1466 219.306 121.1466 L 206.8074 125.6935 C 206.8074 125.6935 207.5175 120.8625 231.2364 109.7795 Z" stroke="#ffffff00" stroke-width="1" fill="#ffffff"/>
	<path d="M 196.0131 139.9025 L 311.341 139.9025 L 314.1816 142.7443 C 314.1816 142.7443 311.341 152.5485 303.3874 158.6583 C 295.4337 164.7682 290.3207 167.1837 290.3207 167.1837 C 290.3207 167.1837 280.0945 171.8727 274.4134 172.8673 C 268.7322 173.8619 262.4829 174.5724 262.4829 174.5724 L 262.4829 185.3712 L 244.8712 189.9181 L 244.8712 174.5724 C 244.8712 174.5724 232.2306 173.0094 230.6683 172.299 C 229.106 171.5885 219.8741 168.3204 219.8741 168.3204 C 219.8741 168.3204 206.9494 162.0685 202.2624 156.9533 C 197.5754 151.838 193.1725 143.881 193.1725 143.881 L 193.7406 141.6076 L 196.0131 139.9025 Z" stroke="#ffffff00" stroke-width="1" fill="#ffffff"/>
	<path d="M 270.4366 243.9122 L 270.4366 268.3516 C 270.4366 268.3516 276.1177 268.0674 290.3207 260.9629 C 304.5236 253.8584 309.0686 249.0274 309.0686 249.0274 L 310.2048 245.6172 L 309.0686 242.2071 L 306.228 238.7969 L 301.1149 237.6602 L 296.57 238.2286 C 296.57 238.2286 277.9641 243.4859 270.4366 243.9122 Z" stroke="#ffffff00" stroke-width="1" fill="#ffffff"/>
	<path d="M 254.5293 91.0236 C 254.5293 91.0236 255.8075 88.6081 261.3467 86.4768 C 266.8858 84.3454 270.4366 88.7502 270.4366 88.7502 L 270.4366 90.4553 C 270.4366 90.4553 268.4482 94.718 261.3467 95.0021 C 254.2452 95.2863 254.5293 91.0236 254.5293 91.0236 ZM 233.5089 96.1389 C 233.5089 96.1389 237.7698 86.7609 255.0974 80.2248 C 272.425 73.6887 311.341 83.635 311.341 83.635 C 311.341 83.635 337.7585 89.6027 349.9731 105.2326 C 362.1876 120.8625 360.7673 132.5138 360.7673 132.5138 C 360.7673 132.5138 363.0398 154.1115 353.3818 170.5939 C 343.7238 187.0763 330.0889 196.7384 330.0889 196.7384 C 330.0889 196.7384 321.5672 203.2745 306.228 209.2423 C 290.8888 215.21 244.8712 224.0196 244.8712 224.0196 L 234.077 226.8614 L 225.5552 230.2715 C 225.5552 230.2715 217.6016 235.9551 220.4422 241.0704 C 223.2828 246.1856 236.9176 246.754 236.9176 246.754 L 236.9176 274.0352 C 236.9176 274.0352 208.2276 273.4668 198.2856 258.1211 C 188.3435 242.7755 193.1725 231.4083 193.1725 231.4083 C 193.1725 231.4083 193.7406 218.6202 214.1929 206.9688 C 234.6451 195.3175 257.938 196.17 268.1641 193.3282 C 278.3902 190.4864 310.4889 184.5187 320.4309 173.4357 C 330.373 162.3527 338.6107 148.7121 335.202 130.8087 C 331.7933 112.9054 309.0686 109.2111 309.0686 109.2111 C 309.0686 109.2111 295.1497 109.7795 288.0482 111.4845 C 280.9467 113.1896 269.3003 114.3263 269.3003 114.3263 L 252.2568 112.6213 C 252.2568 112.6213 233.2248 110.0636 233.5089 96.1389 Z" stroke="#ffffff00" stroke-width="1" fill="#ffffff"/>
</svg>