<?xml version="1.0" standalone="no"?>
<!-- Generator: Adobe Fireworks 10, Export SVG Extension by Aaron Beall (http://fireworks.abeall.com) . Version: 0.6.1  -->
<!DOCTYPE svg PUBLIC "-//W3C//DTD SVG 1.1//EN" "http://www.w3.org/Graphics/SVG/1.1/DTD/svg11.dtd">
<svg id="dinitesisler.fw-Page%201" viewBox="0 0 512 512" style="background-color:#ffffff00" version="1.1"
	xmlns="http://www.w3.org/2000/svg" xmlns:xlink="http://www.w3.org/1999/xlink" xml:space="preserve"
	x="0px" y="0px" width="512px" height="512px"
>
	<path d="M 402 168 L 402 172 L 399 190 L 395 205 L 388 224 L 267 480 L 189 314 C 189 314 147 225 141 211 C 135 197 132 168 132 168 C 132 93.4406 192.4406 33 267 33 C 341.5594 33 402 93.4406 402 168 Z" stroke="#006220" stroke-width="7" fill="#009531"/>
	<path d="M 192 162.5 C 192 204.7503 226.2975 239 268.6068 239 C 304.5867 239 334.7737 214.2322 343 180.8378 C 334.2878 199.8234 315.984 213.8445 293.6505 216.14 C 260.2227 219.5757 230.3967 195.4214 226.9094 162.2015 C 223.4221 128.9816 247.5738 99.081 280.9761 95.4021 C 292.9061 94.0882 304.4048 96.2948 314.4283 101.1888 C 301.6494 91.6496 285.7891 86 268.6068 86 C 226.2975 86 192 120.2497 192 162.5 Z" fill="#ffffff"/>
	<path d="M 289.9854 141.1512 L 296.2209 112.686 L 308.6917 139.3721 L 336.3058 137.593 L 317.5995 158.0523 L 326.5073 182.9593 L 301.5655 170.5058 L 279.2961 188.2965 L 284.6408 160.7209 L 262.3714 143.8198 L 289.9854 141.1512 Z" fill="#ffffff"/>
</svg>