<?xml version="1.0" standalone="no"?>
<!-- Generator: Adobe Fireworks 10, Export SVG Extension by Aaron Beall (http://fireworks.abeall.com) . Version: 0.6.1  -->
<!DOCTYPE svg PUBLIC "-//W3C//DTD SVG 1.1//EN" "http://www.w3.org/Graphics/SVG/1.1/DTD/svg11.dtd">
<svg id="restaurant.fw-Page%201" viewBox="0 0 512 512" style="background-color:#ffffff00" version="1.1"
	xmlns="http://www.w3.org/2000/svg" xmlns:xlink="http://www.w3.org/1999/xlink" xml:space="preserve"
	x="0px" y="0px" width="512px" height="512px"
>
	<path d="M 402 168 L 402 172 L 399 190 L 395 205 L 388 224 L 267 480 L 189 314 C 189 314 147 225 141 211 C 135 197 132 168 132 168 C 132 93.4406 192.4406 33 267 33 C 341.5594 33 402 93.4406 402 168 Z" stroke="#bb8c00" stroke-width="7" fill="#ffbf00"/>
	<path id="Ellipse" d="M 170 170 C 170 117.5323 212.5323 75 265 75 C 317.4677 75 360 117.5323 360 170 C 360 222.4677 317.4677 265 265 265 C 212.5323 265 170 222.4677 170 170 Z" fill="#755800"/>
	<path d="M 212.9744 250.4872 L 212 193 L 214 189 L 215 187 L 217 185 L 219 183 L 221 181 L 223 180 L 225 179 L 220 113 L 219 113 L 214 166 L 212 166 L 208 113 L 207 113 L 204 166 L 202 166 L 196 113 L 195 113 L 192 179 L 195 181 L 198 183 L 200 185 L 202 187 L 204 190 L 206 193 L 206 199 L 206 246.25 C 179.6042 228.3895 163 198.6341 163 165 C 163 109.7708 207.7708 65 263 65 C 318.2292 65 363 109.7708 363 165 C 363 192.7622 351.6873 217.8818 333.4201 236.0006 L 331 236 L 331 116 C 331 116 329.875 112.75 330 113 C 330.125 113.25 328.625 110.75 325 112 C 321.375 113.25 316 125 316 125 C 316 125 310.5 138.5 310 158 C 309.5 177.5 310 188 310 188 C 310 188 311.375 209 315 217 C 318.625 225 319 226 319 226 L 319 247 L 319 248 C 305.3414 257.0958 288.8416 263.1389 271.4401 264.6364 C 271.1924 264.6577 269.8691 263.58 269.8691 263.58 C 269.3091 253.0541 267.2075 211.6301 268.625 208.25 C 270.25 204.375 283 190 283 190 C 283 190 285.1946 188.9711 290 179 C 295 168.625 295 156 295 156 C 295 156 294 136.75 288 127 C 282 117.25 271 113 271 113 L 260 113 C 260 113 251.125 116.5 245 126 C 238.875 135.5 237 152 237 152 C 237 152 238.1176 182.6289 249 191 C 262 201 263 210 263 210 C 263 210 262.0275 264.4587 261.6888 264.9916 C 244.4291 264.7698 228.2237 260.1756 214.1295 252.2657 L 212.9744 250.4872 Z" fill="#ffffff"/>
</svg>