<?xml version="1.0" standalone="no"?>
<!-- Generator: Adobe Fireworks 10, Export SVG Extension by Aaron Beall (http://fireworks.abeall.com) . Version: 0.6.1  -->
<!DOCTYPE svg PUBLIC "-//W3C//DTD SVG 1.1//EN" "http://www.w3.org/Graphics/SVG/1.1/DTD/svg11.dtd">
<svg id="askeri.fw-Page%201" viewBox="0 0 512 512" style="background-color:#ffffff00" version="1.1"
	xmlns="http://www.w3.org/2000/svg" xmlns:xlink="http://www.w3.org/1999/xlink" xml:space="preserve"
	x="0px" y="0px" width="512px" height="512px"
>
	<path d="M 402 168 L 402 172 L 399 190 L 395 205 L 388 224 L 267 480 L 189 314 C 189 314 147 225 141 211 C 135 197 132 168 132 168 C 132 93.4406 192.4406 33 267 33 C 341.5594 33 402 93.4406 402 168 Z" stroke="#292e12" stroke-width="7" fill="#4b5320"/>
	<path d="M 300.1338 170.0305 L 310.7388 178.0911 L 326.5032 159.0912 L 325.3567 157.3639 L 339.9745 142.97 L 341.4076 144.1215 L 348 137.5003 L 344.2739 134.3337 L 323.3503 155.9245 L 315.0382 148.1518 C 315.0382 148.1518 313.0318 149.8791 313.0318 150.1669 C 313.0318 150.4548 317.3312 155.6366 317.3312 155.6366 L 303.8599 169.4548 L 301.2803 168.5911 L 300.1338 170.0305 Z" stroke="#ffffff00" stroke-width="1" fill="#ffffff"/>
	<path d="M 229.9108 244.3031 L 230.4841 261 L 216.1529 261 L 229.9108 244.3031 Z" stroke="#ffffff00" stroke-width="1" fill="#ffffff"/>
	<path d="M 239.3409 115.9676 L 294.6828 115.9676 L 294.6828 137.2083 C 294.6828 137.2083 295.8418 139.5448 298.4496 140.0404 C 301.0573 140.536 303.665 137.2083 303.665 137.2083 L 303.665 116.8172 L 303.665 110.3034 L 301.9265 104.356 L 299.3188 98.1254 L 294.6828 92.178 L 288.0186 86.2306 L 281.9339 83.1153 L 275.5594 80.8496 L 270.6337 80.2832 L 268.026 80 L 263.1003 80 L 257.3053 81.1328 L 251.8001 82.8321 L 246.8744 85.6642 L 242.2384 89.0627 L 238.7614 92.7444 L 235.5742 96.7094 L 233.2562 100.9575 L 231.5177 104.6392 L 230.6485 108.8873 L 230.069 112.8523 L 230.069 116.8172 L 230.069 136.9251 C 230.069 136.9251 230.8658 140.1112 233.8357 140.3236 C 236.8056 140.536 238.7614 137.2083 238.7614 137.2083 L 238.7131 116.062 C 238.7131 116.062 239.1236 116.0384 239.3409 115.9676 Z" stroke="#ffffff00" stroke-width="1" fill="#98a741"/>
	<path d="M 229.7732 142.5426 L 203.5414 175.2124 L 236.7898 170.6063 C 236.7898 170.6063 244.2421 167.7275 256.2803 166.8639 C 268.3185 166.0002 285.2293 167.7275 285.2293 167.7275 L 293.5414 170.0305 L 299.8471 172.9093 L 307.0128 177.2275 L 312.172 182.985 L 317.0446 191.0456 L 319.3376 198.8183 L 321.9172 219.5455 L 326.2166 261 L 305.0064 261 L 300.707 215.5153 L 298.7007 261 L 251.9809 261 L 296.9809 179.5305 L 284.0828 175.7881 L 236.7898 260.1364 L 233.6369 260.1364 L 232.2038 220.6971 L 230.4841 202.8486 L 176.0255 202.2729 L 170.5796 199.682 L 168.2866 195.6517 L 168 192.1972 L 170.0064 188.4547 L 178.3185 177.2275 L 216.1529 129.7276 L 221.0255 124.2579 L 222.8199 122.9471 L 229.7732 142.5426 Z" stroke="#ffffff00" stroke-width="1" fill="#ffffff"/>
	<path d="M 292 119.0761 L 241 119.0761 L 241 146.8456 C 241 146.8456 256.2803 162.8336 270.6115 159.0912 C 284.9427 155.3488 290.3885 147.0003 290.3885 147.0003 C 290.3885 147.0003 290.9575 146.5105 292.0088 144.7485 C 292.3056 144.2509 292 119.0761 292 119.0761 Z" fill="#ffffff"/>
</svg>