<?xml version="1.0" standalone="no"?>
<!-- Generator: Adobe Fireworks 10, Export SVG Extension by Aaron Beall (http://fireworks.abeall.com) . Version: 0.6.1  -->
<!DOCTYPE svg PUBLIC "-//W3C//DTD SVG 1.1//EN" "http://www.w3.org/Graphics/SVG/1.1/DTD/svg11.dtd">
<svg id="hastane.fw-Page%201" viewBox="0 0 512 512" style="background-color:#ffffff00" version="1.1"
	xmlns="http://www.w3.org/2000/svg" xmlns:xlink="http://www.w3.org/1999/xlink" xml:space="preserve"
	x="0px" y="0px" width="512px" height="512px"
>
	<path d="M 402 168 L 402 172 L 399 190 L 395 205 L 388 224 L 267 480 L 189 314 C 189 314 147 225 141 211 C 135 197 132 168 132 168 C 132 93.4406 192.4406 33 267 33 C 341.5594 33 402 93.4406 402 168 Z" stroke="#568000" stroke-width="7" fill="#76b000"/>
	<path id="Ellipse" d="M 259.6389 83.3514 C 259.6389 74.8729 266.5069 68 274.9792 68 C 283.4515 68 290.3195 74.8729 290.3195 83.3514 C 290.3195 91.8298 283.4515 98.7028 274.9792 98.7028 C 266.5069 98.7028 259.6389 91.8298 259.6389 83.3514 Z" fill="#ffffff"/>
	<path id="Ellipse2" d="M 249.1944 262.6687 C 249.1944 253.6491 256.5008 246.3375 265.5139 246.3375 C 274.527 246.3375 281.8333 253.6491 281.8333 262.6687 C 281.8333 271.6884 274.527 279 265.5139 279 C 256.5008 279 249.1944 271.6884 249.1944 262.6687 Z" fill="#ffffff"/>
	<path d="M 255.0694 103.2755 C 255.0694 103.2755 261.9236 101.6424 270.0833 101.969 C 278.243 102.2957 284.4445 102.6223 284.4445 102.6223 C 284.4445 102.6223 306.9653 72.2461 307.2917 71.9195 C 307.618 71.5929 309.9028 69.3065 309.9028 69.3065 L 311.8611 68.6533 C 311.8611 68.6533 315.2882 68.6533 317.7361 69.9598 C 320.184 71.2663 321 75.1858 321 75.1858 L 320.3472 79.1053 L 317.0833 83.0248 L 292.2778 115.0341 C 292.2778 115.0341 291.7882 126.6293 290.9722 141.8173 C 290.1563 157.0054 289.6667 169.2539 289.6667 169.2539 C 289.6667 169.2539 300.1111 184.1153 304.6805 191.4644 C 309.25 198.8135 314.4722 207.1424 314.4722 207.1424 L 315.125 211.7152 L 317.0833 233.9257 L 319.6945 263.322 C 319.6945 263.322 320.0208 267.5681 319.6945 267.8947 C 319.368 268.2214 317.7361 271.161 317.7361 271.161 L 315.7778 273.774 L 312.5139 275.7337 L 308.5972 275.7337 L 304.6805 275.0805 L 301.4167 271.8142 L 299.4583 269.8545 L 298.8055 267.2415 C 298.8055 267.2415 297.3368 256.1362 296.1945 239.8049 C 295.0521 223.4737 294.2361 215.6347 294.2361 215.6347 C 294.2361 215.6347 286.2396 203.8762 279.2222 195.3839 C 272.2049 186.8916 266.1667 178.3994 266.1667 178.3994 L 230.2639 224.1269 L 227.6528 227.3932 L 224.3889 229.3529 L 221.125 230.0062 L 217.8611 230.0062 L 181.9583 207.1424 L 180.6528 203.2229 L 180 199.3034 L 181.9583 194.7307 L 184.5694 191.4644 L 188.4861 189.5046 L 194.3611 190.1579 L 218.5139 205.1827 L 248.5417 159.4551 L 249.1944 133.3251 L 234.8333 151.6161 C 234.8333 151.6161 232.2222 155.5356 227.6528 158.1486 C 223.0833 160.7616 219.8194 159.4551 219.8194 159.4551 C 219.8194 159.4551 216.066 156.0255 215.9028 155.5356 C 215.7396 155.0457 215.9028 150.3096 215.9028 150.3096 L 219.1667 145.7368 C 219.1667 145.7368 229.2847 137.8978 235.4861 128.0991 C 241.6875 118.3003 252.4583 105.2353 252.4583 105.2353 L 255.0694 103.2755 Z" stroke="#ffffff00" stroke-width="1" fill="#ffffff"/>
</svg>