<?xml version="1.0" standalone="no"?>
<!-- Generator: Adobe Fireworks 10, Export SVG Extension by Aaron Beall (http://fireworks.abeall.com) . Version: 0.6.1  -->
<!DOCTYPE svg PUBLIC "-//W3C//DTD SVG 1.1//EN" "http://www.w3.org/Graphics/SVG/1.1/DTD/svg11.dtd">
<svg id="depo.fw-Page%201" viewBox="0 0 512 512" style="background-color:#ffffff00" version="1.1"
	xmlns="http://www.w3.org/2000/svg" xmlns:xlink="http://www.w3.org/1999/xlink" xml:space="preserve"
	x="0px" y="0px" width="512px" height="512px"
>
	<path d="M 402 168 L 402 172 L 399 190 L 395 205 L 388 224 L 267 480 L 189 314 C 189 314 147 225 141 211 C 135 197 132 168 132 168 C 132 93.4406 192.4406 33 267 33 C 341.5594 33 402 93.4406 402 168 Z" stroke="#444444" stroke-width="7" fill="#666666"/>
	<g>
		<path d="M 309.7679 169.1786 C 308.6888 166.628 309.6021 164.335 312.1121 163.2931 L 356.8879 144.7069 C 359.3979 143.665 361.6888 144.628 362.7679 147.1786 L 370.2321 164.8214 C 371.3112 167.372 370.3979 169.665 367.8879 170.7069 L 323.1121 189.2931 C 320.6021 190.335 318.3112 189.372 317.2321 186.8214 L 309.7679 169.1786 Z" stroke="#ffffff00" stroke-width="1" fill="#ffffff"/>
	</g>
	<g>
		<path d="M 296.7679 138.1786 C 295.6888 135.628 296.6021 133.335 299.1121 132.2931 L 343.8879 113.7069 C 346.3979 112.665 348.6888 113.628 349.7679 116.1786 L 357.2321 133.8214 C 358.3112 136.372 357.3979 138.665 354.8879 139.7069 L 310.1121 158.2931 C 307.6021 159.335 305.3112 158.372 304.2321 155.8214 L 296.7679 138.1786 Z" stroke="#ffffff00" stroke-width="1" fill="#ffffff"/>
	</g>
	<g>
		<path d="M 282.7679 108.1786 C 281.6888 105.628 282.6021 103.335 285.1121 102.2931 L 329.8879 83.7069 C 332.3979 82.665 334.6888 83.628 335.7679 86.1786 L 343.2321 103.8214 C 344.3112 106.372 343.3979 108.665 340.8879 109.7069 L 296.1121 128.2931 C 293.6021 129.335 291.3112 128.372 290.2321 125.8214 L 282.7679 108.1786 Z" stroke="#ffffff00" stroke-width="1" fill="#ffffff"/>
	</g>
	<path d="M 267 83 L 316 199 L 373 175 C 373 175 378.125 174.25 379 177 C 379.875 179.75 376 183 376 183 L 316 209 L 311 209 L 308 202 L 258 86 C 258 86 256.75 81.125 261 80 C 265.25 78.875 267 83 267 83 Z" stroke="#ffffff00" stroke-width="1" fill="#ffffff"/>
	<path id="Ellipse" d="M 180 223 C 180 213.611 187.611 206 197 206 C 206.389 206 214 213.611 214 223 C 214 232.389 206.389 240 197 240 C 187.611 240 180 232.389 180 223 Z" stroke="#ffffff00" stroke-width="1" fill="#ffffff"/>
	<path id="Ellipse2" d="M 259 217 C 259 204.2973 269.2973 194 282 194 C 294.7027 194 305 204.2973 305 217 C 305 229.7027 294.7027 240 282 240 C 269.2973 240 259 229.7027 259 217 Z" stroke="#ffffff00" stroke-width="1" fill="#ffffff"/>
	<path d="M 203 121 L 252 121 L 277 179 L 243 179 L 237 165 L 203 165 L 203 121 ZM 291 190 L 291 180 L 261 112 L 258 109 L 196 109 L 193 111 L 192 114 L 192 165 L 183 165 L 180 169 L 180 206 L 184 202 L 190 199 L 197 198 L 203 199 C 203 199 207.625 201.125 208 201 C 208.375 200.875 215 206 215 206 L 219 212 C 219 212 221.375 217 221 217 C 220.625 217 221 223 221 223 L 252 223 L 252 216 L 253 211 L 255 203 L 260 197 L 266 192 L 273 189 L 279 188 L 285 188 L 291 190 Z" stroke="#ffffff00" stroke-width="1" fill="#ffffff"/>
</svg>