<?xml version="1.0" standalone="no"?>
<!-- Generator: Adobe Fireworks 10, Export SVG Extension by Aaron Beall (http://fireworks.abeall.com) . Version: 0.6.1  -->
<!DOCTYPE svg PUBLIC "-//W3C//DTD SVG 1.1//EN" "http://www.w3.org/Graphics/SVG/1.1/DTD/svg11.dtd">
<svg id="turistik.fw-Page%201" viewBox="0 0 512 512" style="background-color:#ffffff00" version="1.1"
	xmlns="http://www.w3.org/2000/svg" xmlns:xlink="http://www.w3.org/1999/xlink" xml:space="preserve"
	x="0px" y="0px" width="512px" height="512px"
>
	<path d="M 402 168 L 402 172 L 399 190 L 395 205 L 388 224 L 267 480 L 189 314 C 189 314 147 225 141 211 C 135 197 132 168 132 168 C 132 93.4406 192.4406 33 267 33 C 341.5594 33 402 93.4406 402 168 Z" stroke="#532900" stroke-width="7" fill="#8c4600"/>
	<path d="M 176.5 97 L 267.5 52 L 357.5 97 L 176.5 97 Z" fill="#ffffff"/>
	<path d="M 185.5 103 L 348.5 103 L 348.5 118 L 185.5 118 L 185.5 103 Z" fill="#ffffff"/>
	<path d="M 192 126 L 207 126 L 207 199 L 192 199 L 192 126 Z" fill="#ffffff"/>
	<path d="M 236 126 L 251 126 L 251 199 L 236 199 L 236 126 Z" fill="#ffffff"/>
	<path d="M 325 126 L 340 126 L 340 199 L 325 199 L 325 126 Z" fill="#ffffff"/>
	<path d="M 281 126 L 296 126 L 296 199 L 281 199 L 281 126 Z" fill="#ffffff"/>
	<path d="M 193.5 206 L 340.5 206 L 340.5 216 L 348.5 216 L 354.5 222 L 354.5 235 L 179.5 235 L 179.5 222 L 185.5 216 L 193.5 216 L 193.5 206 Z" fill="#ffffff"/>
</svg>