<?xml version="1.0" standalone="no"?>
<!-- Generator: Adobe Fireworks 10, Export SVG Extension by Aaron Beall (http://fireworks.abeall.com) . Version: 0.6.1  -->
<!DOCTYPE svg PUBLIC "-//W3C//DTD SVG 1.1//EN" "http://www.w3.org/Graphics/SVG/1.1/DTD/svg11.dtd">
<svg id="spor.fw-Page%201" viewBox="0 0 512 512" style="background-color:#ffffff00" version="1.1"
	xmlns="http://www.w3.org/2000/svg" xmlns:xlink="http://www.w3.org/1999/xlink" xml:space="preserve"
	x="0px" y="0px" width="512px" height="512px"
>
	<path d="M 402 168 L 402 172 L 399 190 L 395 205 L 388 224 L 267 480 L 189 314 C 189 314 147 225 141 211 C 135 197 132 168 132 168 C 132 93.4406 192.4406 33 267 33 C 341.5594 33 402 93.4406 402 168 Z" stroke="#9d0000" stroke-width="7" fill="#d90000"/>
	<path d="M 229.9715 257.2279 L 236.6201 243.9442 L 296.4577 243.9442 L 304.0561 257.2279 L 229.9715 257.2279 ZM 290.7589 215.0047 C 290.7589 207.9302 296.4995 202.1953 303.5812 202.1953 C 310.6629 202.1953 316.4036 207.9302 316.4036 215.0047 C 316.4036 222.0791 310.6629 227.8139 303.5812 227.8139 C 296.4995 227.8139 290.7589 222.0791 290.7589 215.0047 ZM 217.6241 214.0558 C 217.6241 206.9814 223.3647 201.2465 230.4464 201.2465 C 237.5281 201.2465 243.2687 206.9814 243.2687 214.0558 C 243.2687 221.1303 237.5281 226.8651 230.4464 226.8651 C 223.3647 226.8651 217.6241 221.1303 217.6241 214.0558 ZM 217.6241 148.1116 L 217.6241 172.7814 C 217.6241 172.7814 217.2679 176.4581 219.5237 178.4744 C 221.7795 180.4907 226.1723 180.3721 226.1723 180.3721 L 308.8051 180.3721 C 308.8051 180.3721 312.7231 180.0163 314.5039 178.4744 C 316.2848 176.9326 316.4036 171.8326 316.4036 171.8326 L 316.4036 145.2651 C 316.4036 145.2651 316.0474 139.2163 309.7549 132.9302 C 303.1723 126.3543 296.4577 126.2884 296.4577 126.2884 L 239.4695 126.2884 C 239.4695 126.2884 231.6337 127.3558 226.1723 131.9814 C 220.7109 136.607 218.5739 144.3163 218.5739 144.3163 L 217.6241 148.1116 ZM 218.5739 76 L 318.3032 76 C 318.3032 76 323.5271 76.7907 327.8012 79.7953 C 332.0753 82.8 333.5 90.2326 333.5 90.2326 L 333.5 94.9767 C 333.5 94.9767 332.5502 99.0884 329.7008 99.7209 C 326.8514 100.3535 323.0522 98.7721 323.0522 98.7721 C 323.0522 98.7721 321.3109 96.7163 320.2028 93.0791 C 319.0947 89.4419 317.3534 89.2837 317.3534 89.2837 L 273.6624 89.2837 L 273.6624 106.3628 L 293.6083 106.3628 C 293.6083 106.3628 299.6237 107.1535 307.8553 110.1581 C 316.0869 113.1628 322.1024 120.5954 322.1024 120.5954 C 322.1024 120.5954 325.9016 124.5488 327.8012 128.1861 C 329.7008 131.8233 330.6506 139.5721 330.6506 139.5721 L 330.6506 224.9674 C 330.6506 224.9674 331.4421 229.0791 328.751 233.507 C 326.0599 237.9349 320.2028 242.0465 320.2028 242.0465 L 316.4036 242.0465 L 316.4036 244.893 L 328.751 267.6651 L 329.7008 270.5116 L 329.7008 274.307 L 326.8514 277.1535 L 324.002 280 L 320.2028 280 L 315.4537 278.1023 L 312.6043 274.307 L 310.7047 269.5628 L 222.3731 269.5628 L 219.5237 274.307 L 216.6743 278.1023 L 212.8751 280 L 209.0759 280 L 206.2264 277.1535 L 203.377 273.3582 L 203.377 269.5628 L 205.2766 265.7675 L 216.6743 243.9442 L 216.6743 242.0465 L 212.8751 242.0465 C 212.8751 242.0465 209.9069 241.3349 206.2264 236.3535 C 202.546 231.3721 202.4272 228.7628 202.4272 228.7628 L 202.4272 137.6744 C 202.4272 137.6744 203.0209 133.286 207.1762 126.2884 C 211.3316 119.2907 220.4735 112.0558 220.4735 112.0558 C 220.4735 112.0558 226.5285 108.7349 229.0217 108.2605 C 231.5149 107.786 236.6201 106.3628 236.6201 106.3628 L 260.3652 106.3628 L 260.3652 89.2837 L 216.6743 89.2837 C 216.6743 89.2837 215.0121 89.1651 213.8249 92.1302 C 212.6376 95.0954 212.8751 95.9256 212.8751 95.9256 C 212.8751 95.9256 212.6376 99.4837 209.0759 99.7209 C 205.5141 99.9581 202.4272 98.7721 202.4272 98.7721 C 202.4272 98.7721 200.8838 97.1116 200.5276 93.0791 C 200.1714 89.0465 203.377 82.6419 203.377 82.6419 C 203.377 82.6419 206.7013 79.4395 210.0257 77.8977 C 213.35 76.3558 218.5739 76 218.5739 76 Z" stroke="#ffffff00" stroke-width="1" fill="#ffffff"/>
</svg>